<?xml version="1.0" encoding="UTF-8"?>
<!DOCTYPE svg PUBLIC "-//W3C//DTD SVG 1.1//EN" "http://www.w3.org/Graphics/SVG/1.1/DTD/svg11.dtd">
<!-- Creator: CorelDRAW -->
<svg xmlns="http://www.w3.org/2000/svg" xml:space="preserve" width="169.333mm" height="169.333mm" version="1.1" style="shape-rendering:geometricPrecision; text-rendering:geometricPrecision; image-rendering:optimizeQuality; fill-rule:evenodd; clip-rule:evenodd"
 viewBox="0 0 16933.32 16933.32"
 xmlns:xlink="http://www.w3.org/1999/xlink"
 xmlns:xodm="http://www.corel.com/coreldraw/odm/2003">
 <defs>
  <style type="text/css">
   <![CDATA[
    .fil1 {fill:#727272;fill-rule:nonzero}
    .fil0 {fill:#F1861A;fill-rule:nonzero}
   ]]>
  </style>
 </defs>
 <g id="Livello_x0020_1">
  <metadata id="CorelCorpID_0Corel-Layer"/>
  <g id="_105553215089696">
   <path class="fil0" d="M11213.73 5934.77c106.33,-29.03 261.04,-54.83 460.91,-70.96 202.99,-16.12 447.91,-25.7 737.98,-25.7 747.77,3.13 1321.36,173.97 1717.77,505.97 399.63,335.12 599.5,802.49 602.72,1408.33 -3.22,438.34 -103.11,815.4 -309.42,1131.27 -202.99,312.65 -493.07,554.35 -870.12,721.96 -377.16,167.51 -828.29,251.37 -1353.61,254.6 -219.22,0 -409.31,-6.45 -567.25,-16.13 -154.71,-12.9 -296.52,-32.25 -418.98,-61.28l0 -3848.06z"/>
   <path class="fil0" d="M16933.32 10205.77l0 6731.83 -5719.59 0 0 -4892.24c135.36,28.93 290.07,48.28 457.69,61.18 170.73,9.68 354.47,16.13 547.89,16.13 876.57,0 1672.61,-112.79 2394.57,-338.35 718.73,-225.67 1334.25,-570.48 1840.22,-1034.61 179.68,-163.67 339.6,-345.12 479.22,-543.94z"/>
   <path class="fil1" d="M-0 8470.84c0,-2336.1 828.92,-4335.3 2491.22,-5997.5 1644.52,-1644.51 3634.87,-2469.16 5975.34,-2469.16 2336.2,0 4335.4,824.65 5997.6,2469.16 591.49,597.84 1076.85,1239.16 1455.99,1924.19 -368.21,-229.84 -801.35,-410.46 -1296.6,-541.55 -657.45,-174.07 -1440.69,-261.05 -2346.29,-261.05 -895.92,0 -1669.48,25.81 -2323.71,77.41 -654.23,48.28 -1208.57,112.78 -1659.7,193.31l0 13070.29c-2265.76,-39.85 -4198.69,-868.46 -5802.63,-2489.67 -1662.3,-1644.51 -2491.22,-3634.87 -2491.22,-5975.43z"/>
  </g>
 </g>
</svg>
